<mxfile host="app.diagrams.net" modified="2024-01-22T17:00:48.251Z" agent="Mozilla/5.0 (Windows NT 10.0; Win64; x64) AppleWebKit/537.36 (KHTML, like Gecko) Chrome/120.0.0.0 Safari/537.36" etag="vus_ZkzIwf_bTLR8WsiM" version="22.1.21" type="github">
  <diagram id="C5RBs43oDa-KdzZeNtuy" name="Page-1">
    <mxGraphModel dx="393" dy="255" grid="1" gridSize="10" guides="1" tooltips="1" connect="1" arrows="1" fold="1" page="1" pageScale="1" pageWidth="827" pageHeight="1169" math="0" shadow="0">
      <root>
        <mxCell id="WIyWlLk6GJQsqaUBKTNV-0" />
        <mxCell id="WIyWlLk6GJQsqaUBKTNV-1" parent="WIyWlLk6GJQsqaUBKTNV-0" />
        <mxCell id="sCPW3D4xUPKH-xF0vu3V-0" value="" style="rounded=0;whiteSpace=wrap;html=1;fillColor=none;" vertex="1" parent="WIyWlLk6GJQsqaUBKTNV-1">
          <mxGeometry x="110" y="395" width="680" height="255" as="geometry" />
        </mxCell>
        <mxCell id="sCPW3D4xUPKH-xF0vu3V-1" value="Tabla_Ticket" style="shape=umlLifeline;perimeter=lifelinePerimeter;whiteSpace=wrap;html=1;container=1;collapsible=0;recursiveResize=0;outlineConnect=0;rounded=1;shadow=0;comic=0;labelBackgroundColor=none;strokeWidth=1;fontFamily=Verdana;fontSize=12;align=center;" vertex="1" parent="WIyWlLk6GJQsqaUBKTNV-1">
          <mxGeometry x="690" y="80" width="100" height="580" as="geometry" />
        </mxCell>
        <mxCell id="sCPW3D4xUPKH-xF0vu3V-2" value="&quot;Inicio de sesión exitoso&quot;&lt;br&gt;(Regresa objeto válido)" style="html=1;verticalAlign=bottom;endArrow=open;dashed=1;endSize=8;curved=0;rounded=0;" edge="1" parent="sCPW3D4xUPKH-xF0vu3V-1" target="sCPW3D4xUPKH-xF0vu3V-10">
          <mxGeometry relative="1" as="geometry">
            <mxPoint x="50" y="240" as="sourcePoint" />
            <mxPoint x="-30" y="240" as="targetPoint" />
          </mxGeometry>
        </mxCell>
        <mxCell id="sCPW3D4xUPKH-xF0vu3V-3" value="" style="html=1;points=[];perimeter=orthogonalPerimeter;rounded=0;shadow=0;comic=0;labelBackgroundColor=none;strokeWidth=1;fontFamily=Verdana;fontSize=12;align=center;" vertex="1" parent="sCPW3D4xUPKH-xF0vu3V-1">
          <mxGeometry x="45" y="180" width="10" height="70" as="geometry" />
        </mxCell>
        <mxCell id="sCPW3D4xUPKH-xF0vu3V-4" value="" style="html=1;points=[];perimeter=orthogonalPerimeter;rounded=0;shadow=0;comic=0;labelBackgroundColor=none;strokeWidth=1;fontFamily=Verdana;fontSize=12;align=center;" vertex="1" parent="sCPW3D4xUPKH-xF0vu3V-1">
          <mxGeometry x="45" y="450" width="10" height="60" as="geometry" />
        </mxCell>
        <mxCell id="sCPW3D4xUPKH-xF0vu3V-5" value="IU_Principal" style="shape=umlLifeline;perimeter=lifelinePerimeter;whiteSpace=wrap;html=1;container=1;collapsible=0;recursiveResize=0;outlineConnect=0;rounded=1;shadow=0;comic=0;labelBackgroundColor=none;strokeWidth=1;fontFamily=Verdana;fontSize=12;align=center;" vertex="1" parent="WIyWlLk6GJQsqaUBKTNV-1">
          <mxGeometry x="100" y="80" width="100" height="580" as="geometry" />
        </mxCell>
        <mxCell id="sCPW3D4xUPKH-xF0vu3V-6" value="" style="html=1;points=[];perimeter=orthogonalPerimeter;rounded=0;shadow=0;comic=0;labelBackgroundColor=none;strokeWidth=1;fontFamily=Verdana;fontSize=12;align=center;" vertex="1" parent="sCPW3D4xUPKH-xF0vu3V-5">
          <mxGeometry x="45" y="60" width="10" height="100" as="geometry" />
        </mxCell>
        <mxCell id="sCPW3D4xUPKH-xF0vu3V-7" value="" style="html=1;verticalAlign=bottom;startArrow=circle;startFill=1;endArrow=open;startSize=6;endSize=8;curved=0;rounded=0;" edge="1" parent="sCPW3D4xUPKH-xF0vu3V-5">
          <mxGeometry width="80" relative="1" as="geometry">
            <mxPoint x="-15" y="70" as="sourcePoint" />
            <mxPoint x="45" y="70.5" as="targetPoint" />
          </mxGeometry>
        </mxCell>
        <mxCell id="sCPW3D4xUPKH-xF0vu3V-8" value="" style="html=1;points=[];perimeter=orthogonalPerimeter;rounded=0;shadow=0;comic=0;labelBackgroundColor=none;strokeWidth=1;fontFamily=Verdana;fontSize=12;align=center;" vertex="1" parent="sCPW3D4xUPKH-xF0vu3V-5">
          <mxGeometry x="45" y="240" width="10" height="40" as="geometry" />
        </mxCell>
        <mxCell id="sCPW3D4xUPKH-xF0vu3V-9" value="Actor" style="shape=umlActor;verticalLabelPosition=bottom;verticalAlign=top;html=1;outlineConnect=0;" vertex="1" parent="WIyWlLk6GJQsqaUBKTNV-1">
          <mxGeometry x="50" y="110" width="30" height="60" as="geometry" />
        </mxCell>
        <mxCell id="sCPW3D4xUPKH-xF0vu3V-10" value="&lt;font style=&quot;font-size: 8px;&quot;&gt;IU_Gestor_SoporteTecnico&lt;/font&gt;" style="shape=umlLifeline;perimeter=lifelinePerimeter;whiteSpace=wrap;html=1;container=1;collapsible=0;recursiveResize=0;outlineConnect=0;rounded=1;shadow=0;comic=0;labelBackgroundColor=none;strokeWidth=1;fontFamily=Verdana;fontSize=12;align=center;" vertex="1" parent="WIyWlLk6GJQsqaUBKTNV-1">
          <mxGeometry x="210" y="80" width="120" height="580" as="geometry" />
        </mxCell>
        <mxCell id="sCPW3D4xUPKH-xF0vu3V-11" value="" style="html=1;points=[];perimeter=orthogonalPerimeter;rounded=0;shadow=0;comic=0;labelBackgroundColor=none;strokeWidth=1;fontFamily=Verdana;fontSize=12;align=center;" vertex="1" parent="sCPW3D4xUPKH-xF0vu3V-10">
          <mxGeometry x="55" y="70" width="10" height="50" as="geometry" />
        </mxCell>
        <mxCell id="sCPW3D4xUPKH-xF0vu3V-12" value="" style="html=1;points=[];perimeter=orthogonalPerimeter;rounded=0;shadow=0;comic=0;labelBackgroundColor=none;strokeWidth=1;fontFamily=Verdana;fontSize=12;align=center;" vertex="1" parent="sCPW3D4xUPKH-xF0vu3V-10">
          <mxGeometry x="45" y="220" width="10" height="50" as="geometry" />
        </mxCell>
        <mxCell id="sCPW3D4xUPKH-xF0vu3V-13" value="&lt;b&gt;&lt;font style=&quot;font-size: 19px;&quot;&gt;FUNCIONALIDAD: Gestión de Soporte Técnico &lt;br&gt;(Requiere previa autentificación).&lt;/font&gt;&lt;/b&gt;" style="text;html=1;align=center;verticalAlign=middle;resizable=0;points=[];autosize=1;strokeColor=none;fillColor=none;" vertex="1" parent="WIyWlLk6GJQsqaUBKTNV-1">
          <mxGeometry x="255" y="10" width="450" height="60" as="geometry" />
        </mxCell>
        <mxCell id="sCPW3D4xUPKH-xF0vu3V-14" value="Selecciona&amp;nbsp;" style="html=1;verticalAlign=bottom;startArrow=oval;startFill=1;endArrow=block;startSize=8;curved=0;rounded=0;exitX=1.2;exitY=0.22;exitDx=0;exitDy=0;exitPerimeter=0;" edge="1" parent="WIyWlLk6GJQsqaUBKTNV-1" source="sCPW3D4xUPKH-xF0vu3V-6" target="sCPW3D4xUPKH-xF0vu3V-10">
          <mxGeometry width="60" relative="1" as="geometry">
            <mxPoint x="180" y="200" as="sourcePoint" />
            <mxPoint x="190" y="162" as="targetPoint" />
          </mxGeometry>
        </mxCell>
        <mxCell id="sCPW3D4xUPKH-xF0vu3V-15" value="&lt;font size=&quot;1&quot;&gt;Gestor_SoporteTecnico&lt;/font&gt;" style="shape=umlLifeline;perimeter=lifelinePerimeter;whiteSpace=wrap;html=1;container=1;collapsible=0;recursiveResize=0;outlineConnect=0;rounded=1;shadow=0;comic=0;labelBackgroundColor=none;strokeWidth=1;fontFamily=Verdana;fontSize=12;align=center;" vertex="1" parent="WIyWlLk6GJQsqaUBKTNV-1">
          <mxGeometry x="340" y="80" width="120" height="580" as="geometry" />
        </mxCell>
        <mxCell id="sCPW3D4xUPKH-xF0vu3V-16" value="" style="html=1;points=[];perimeter=orthogonalPerimeter;rounded=0;shadow=0;comic=0;labelBackgroundColor=none;strokeWidth=1;fontFamily=Verdana;fontSize=12;align=center;" vertex="1" parent="sCPW3D4xUPKH-xF0vu3V-15">
          <mxGeometry x="45" y="100" width="10" height="50" as="geometry" />
        </mxCell>
        <mxCell id="sCPW3D4xUPKH-xF0vu3V-17" value="SoporteTecnico" style="shape=umlLifeline;perimeter=lifelinePerimeter;whiteSpace=wrap;html=1;container=1;collapsible=0;recursiveResize=0;outlineConnect=0;rounded=1;shadow=0;comic=0;labelBackgroundColor=none;strokeWidth=1;fontFamily=Verdana;fontSize=12;align=center;" vertex="1" parent="WIyWlLk6GJQsqaUBKTNV-1">
          <mxGeometry x="470" y="80" width="100" height="580" as="geometry" />
        </mxCell>
        <mxCell id="sCPW3D4xUPKH-xF0vu3V-18" value="" style="html=1;points=[];perimeter=orthogonalPerimeter;rounded=0;shadow=0;comic=0;labelBackgroundColor=none;strokeWidth=1;fontFamily=Verdana;fontSize=12;align=center;" vertex="1" parent="sCPW3D4xUPKH-xF0vu3V-17">
          <mxGeometry x="45" y="130" width="10" height="50" as="geometry" />
        </mxCell>
        <mxCell id="sCPW3D4xUPKH-xF0vu3V-19" value="Ticket" style="shape=umlLifeline;perimeter=lifelinePerimeter;whiteSpace=wrap;html=1;container=1;collapsible=0;recursiveResize=0;outlineConnect=0;rounded=1;shadow=0;comic=0;labelBackgroundColor=none;strokeWidth=1;fontFamily=Verdana;fontSize=12;align=center;" vertex="1" parent="WIyWlLk6GJQsqaUBKTNV-1">
          <mxGeometry x="580" y="80" width="100" height="580" as="geometry" />
        </mxCell>
        <mxCell id="sCPW3D4xUPKH-xF0vu3V-20" value="" style="html=1;points=[];perimeter=orthogonalPerimeter;rounded=0;shadow=0;comic=0;labelBackgroundColor=none;strokeWidth=1;fontFamily=Verdana;fontSize=12;align=center;" vertex="1" parent="sCPW3D4xUPKH-xF0vu3V-19">
          <mxGeometry x="45" y="160" width="10" height="50" as="geometry" />
        </mxCell>
        <mxCell id="sCPW3D4xUPKH-xF0vu3V-21" value="" style="html=1;points=[];perimeter=orthogonalPerimeter;rounded=0;shadow=0;comic=0;labelBackgroundColor=none;strokeWidth=1;fontFamily=Verdana;fontSize=12;align=center;" vertex="1" parent="sCPW3D4xUPKH-xF0vu3V-19">
          <mxGeometry x="45" y="420" width="10" height="50" as="geometry" />
        </mxCell>
        <mxCell id="sCPW3D4xUPKH-xF0vu3V-22" value="Buscar cuenta en la &lt;br&gt;base de datos" style="html=1;verticalAlign=bottom;startArrow=oval;startFill=1;endArrow=block;startSize=8;curved=0;rounded=0;" edge="1" parent="sCPW3D4xUPKH-xF0vu3V-19" target="sCPW3D4xUPKH-xF0vu3V-1">
          <mxGeometry width="60" relative="1" as="geometry">
            <mxPoint x="50" y="460" as="sourcePoint" />
            <mxPoint x="110" y="460" as="targetPoint" />
          </mxGeometry>
        </mxCell>
        <mxCell id="sCPW3D4xUPKH-xF0vu3V-23" value="return" style="html=1;verticalAlign=bottom;endArrow=open;dashed=1;endSize=8;curved=0;rounded=0;" edge="1" parent="WIyWlLk6GJQsqaUBKTNV-1" target="sCPW3D4xUPKH-xF0vu3V-5">
          <mxGeometry relative="1" as="geometry">
            <mxPoint x="260" y="340" as="sourcePoint" />
            <mxPoint x="190" y="340" as="targetPoint" />
          </mxGeometry>
        </mxCell>
        <mxCell id="sCPW3D4xUPKH-xF0vu3V-24" value="Datos erronéos" style="text;html=1;align=center;verticalAlign=middle;resizable=0;points=[];autosize=1;strokeColor=none;fillColor=none;" vertex="1" parent="WIyWlLk6GJQsqaUBKTNV-1">
          <mxGeometry x="10" y="395" width="110" height="30" as="geometry" />
        </mxCell>
        <mxCell id="sCPW3D4xUPKH-xF0vu3V-25" value="" style="html=1;points=[];perimeter=orthogonalPerimeter;rounded=0;shadow=0;comic=0;labelBackgroundColor=none;strokeWidth=1;fontFamily=Verdana;fontSize=12;align=center;" vertex="1" parent="WIyWlLk6GJQsqaUBKTNV-1">
          <mxGeometry x="145" y="410" width="10" height="60" as="geometry" />
        </mxCell>
        <mxCell id="sCPW3D4xUPKH-xF0vu3V-26" value="Iniciar sesión&amp;nbsp;" style="html=1;verticalAlign=bottom;startArrow=oval;startFill=1;endArrow=block;startSize=8;curved=0;rounded=0;exitX=1.2;exitY=0.22;exitDx=0;exitDy=0;exitPerimeter=0;" edge="1" parent="WIyWlLk6GJQsqaUBKTNV-1">
          <mxGeometry width="60" relative="1" as="geometry">
            <mxPoint x="157" y="430" as="sourcePoint" />
            <mxPoint x="270" y="430" as="targetPoint" />
          </mxGeometry>
        </mxCell>
        <mxCell id="sCPW3D4xUPKH-xF0vu3V-27" value="" style="html=1;points=[];perimeter=orthogonalPerimeter;rounded=0;shadow=0;comic=0;labelBackgroundColor=none;strokeWidth=1;fontFamily=Verdana;fontSize=12;align=center;" vertex="1" parent="WIyWlLk6GJQsqaUBKTNV-1">
          <mxGeometry x="265" y="420" width="10" height="50" as="geometry" />
        </mxCell>
        <mxCell id="sCPW3D4xUPKH-xF0vu3V-28" value="" style="html=1;points=[];perimeter=orthogonalPerimeter;rounded=0;shadow=0;comic=0;labelBackgroundColor=none;strokeWidth=1;fontFamily=Verdana;fontSize=12;align=center;" vertex="1" parent="WIyWlLk6GJQsqaUBKTNV-1">
          <mxGeometry x="385" y="440" width="10" height="50" as="geometry" />
        </mxCell>
        <mxCell id="sCPW3D4xUPKH-xF0vu3V-29" value="&lt;font style=&quot;font-size: 9px;&quot;&gt;Solicitar datos personales&lt;/font&gt;" style="html=1;verticalAlign=bottom;startArrow=oval;startFill=1;endArrow=block;startSize=8;curved=0;rounded=0;" edge="1" parent="WIyWlLk6GJQsqaUBKTNV-1">
          <mxGeometry x="0.0087" width="60" relative="1" as="geometry">
            <mxPoint x="275" y="460" as="sourcePoint" />
            <mxPoint x="390" y="460" as="targetPoint" />
            <mxPoint as="offset" />
          </mxGeometry>
        </mxCell>
        <mxCell id="sCPW3D4xUPKH-xF0vu3V-30" value="" style="html=1;points=[];perimeter=orthogonalPerimeter;rounded=0;shadow=0;comic=0;labelBackgroundColor=none;strokeWidth=1;fontFamily=Verdana;fontSize=12;align=center;" vertex="1" parent="WIyWlLk6GJQsqaUBKTNV-1">
          <mxGeometry x="505" y="470" width="10" height="50" as="geometry" />
        </mxCell>
        <mxCell id="sCPW3D4xUPKH-xF0vu3V-31" value="&lt;font style=&quot;font-size: 10px;&quot;&gt;Introduce datos&lt;/font&gt;" style="html=1;verticalAlign=bottom;startArrow=oval;startFill=1;endArrow=block;startSize=8;curved=0;rounded=0;entryX=0.083;entryY=0.177;entryDx=0;entryDy=0;entryPerimeter=0;" edge="1" parent="WIyWlLk6GJQsqaUBKTNV-1" target="sCPW3D4xUPKH-xF0vu3V-30">
          <mxGeometry width="60" relative="1" as="geometry">
            <mxPoint x="395" y="480" as="sourcePoint" />
            <mxPoint x="455" y="480" as="targetPoint" />
          </mxGeometry>
        </mxCell>
        <mxCell id="sCPW3D4xUPKH-xF0vu3V-32" value="Verificación de datos" style="html=1;verticalAlign=bottom;startArrow=oval;startFill=1;endArrow=block;startSize=8;curved=0;rounded=0;" edge="1" parent="WIyWlLk6GJQsqaUBKTNV-1" target="sCPW3D4xUPKH-xF0vu3V-19">
          <mxGeometry width="60" relative="1" as="geometry">
            <mxPoint x="515" y="510" as="sourcePoint" />
            <mxPoint x="575" y="510" as="targetPoint" />
          </mxGeometry>
        </mxCell>
        <mxCell id="sCPW3D4xUPKH-xF0vu3V-33" value="&quot;Datos incorrectos, intentelo de nuevo&quot;&lt;br&gt;(Regresa objeto inválido&quot;" style="html=1;verticalAlign=bottom;endArrow=open;dashed=1;endSize=8;curved=0;rounded=0;exitX=-0.25;exitY=0.828;exitDx=0;exitDy=0;exitPerimeter=0;" edge="1" parent="WIyWlLk6GJQsqaUBKTNV-1" source="sCPW3D4xUPKH-xF0vu3V-4" target="sCPW3D4xUPKH-xF0vu3V-10">
          <mxGeometry relative="1" as="geometry">
            <mxPoint x="750" y="580" as="sourcePoint" />
            <mxPoint x="670" y="580" as="targetPoint" />
          </mxGeometry>
        </mxCell>
        <mxCell id="sCPW3D4xUPKH-xF0vu3V-34" value="&lt;font style=&quot;font-size: 10px;&quot;&gt;Solicitar datos personales&lt;/font&gt;" style="html=1;verticalAlign=bottom;startArrow=oval;startFill=1;endArrow=block;startSize=8;curved=0;rounded=0;entryX=0.5;entryY=0.2;entryDx=0;entryDy=0;entryPerimeter=0;exitX=0.5;exitY=0.8;exitDx=0;exitDy=0;exitPerimeter=0;" edge="1" parent="WIyWlLk6GJQsqaUBKTNV-1" source="sCPW3D4xUPKH-xF0vu3V-11" target="sCPW3D4xUPKH-xF0vu3V-16">
          <mxGeometry width="60" relative="1" as="geometry">
            <mxPoint x="270" y="190" as="sourcePoint" />
            <mxPoint x="380" y="190" as="targetPoint" />
          </mxGeometry>
        </mxCell>
        <mxCell id="sCPW3D4xUPKH-xF0vu3V-35" value="&lt;font style=&quot;font-size: 10px;&quot;&gt;Introduce datos&lt;/font&gt;" style="html=1;verticalAlign=bottom;startArrow=oval;startFill=1;endArrow=block;startSize=8;curved=0;rounded=0;exitX=0.5;exitY=0.8;exitDx=0;exitDy=0;exitPerimeter=0;" edge="1" parent="WIyWlLk6GJQsqaUBKTNV-1" source="sCPW3D4xUPKH-xF0vu3V-16" target="sCPW3D4xUPKH-xF0vu3V-17">
          <mxGeometry width="60" relative="1" as="geometry">
            <mxPoint x="390" y="220" as="sourcePoint" />
            <mxPoint x="450" y="220" as="targetPoint" />
          </mxGeometry>
        </mxCell>
        <mxCell id="sCPW3D4xUPKH-xF0vu3V-36" value="Verificación de datos" style="html=1;verticalAlign=bottom;startArrow=oval;startFill=1;endArrow=block;startSize=8;curved=0;rounded=0;exitX=0.833;exitY=0.76;exitDx=0;exitDy=0;exitPerimeter=0;" edge="1" parent="WIyWlLk6GJQsqaUBKTNV-1" source="sCPW3D4xUPKH-xF0vu3V-18" target="sCPW3D4xUPKH-xF0vu3V-19">
          <mxGeometry width="60" relative="1" as="geometry">
            <mxPoint x="510" y="250" as="sourcePoint" />
            <mxPoint x="570" y="250" as="targetPoint" />
          </mxGeometry>
        </mxCell>
        <mxCell id="sCPW3D4xUPKH-xF0vu3V-37" value="Buscar cuenta en la &lt;br&gt;base de datos" style="html=1;verticalAlign=bottom;startArrow=oval;startFill=1;endArrow=block;startSize=8;curved=0;rounded=0;exitX=1;exitY=0.81;exitDx=0;exitDy=0;exitPerimeter=0;" edge="1" parent="WIyWlLk6GJQsqaUBKTNV-1" source="sCPW3D4xUPKH-xF0vu3V-20" target="sCPW3D4xUPKH-xF0vu3V-1">
          <mxGeometry width="60" relative="1" as="geometry">
            <mxPoint x="630" y="280" as="sourcePoint" />
            <mxPoint x="690" y="280" as="targetPoint" />
          </mxGeometry>
        </mxCell>
      </root>
    </mxGraphModel>
  </diagram>
</mxfile>
